{"asset":{"generator":"3D Builder","version":"2.0"},"scene":0,"scenes":[{"nodes":[0,1,2]}],"nodes":[{"mesh":0,"matrix":[0.9999999403953552,0,0,0,0,-1.1920928244535389e-7,-0.9999998211860657,0,0,0.9999998211860657,-1.1920928244535389e-7,0,0,8.919986527189394e-9,0.07482626289129257,1]},{"mesh":1,"matrix":[0.9999999403953552,0,0,0,0,-1.1920928244535389e-7,-0.9999998211860657,0,0,0.9999998211860657,-1.1920928244535389e-7,0,0,1.4526582603480165e-8,0.12185779213905334,1]},{"mesh":2,"matrix":[0.9999999403953552,0,0,0,0,-1.1920928244535389e-7,-0.9999998211860657,0,0,0.9999998211860657,-1.1920928244535389e-7,0,0,0,0,1]}],"meshes":[{"primitives":[{"attributes":{"POSITION":0},"mode":4,"indices":1,"material":0}]},{"primitives":[{"attributes":{"POSITION":2},"mode":4,"indices":3,"material":0}]},{"primitives":[{"attributes":{"POSITION":4},"mode":4,"indices":5,"material":1}]}],"materials":[{"name":"Metallic","pbrMetallicRoughness":{"baseColorFactor":[0.8387991189956665,0.010960093699395657,0.016807375475764275,1],"metallicFactor":1,"roughnessFactor":0.25},"alphaMode":"OPAQUE"},{"name":"Metallic","pbrMetallicRoughness":{"baseColorFactor":[0.23455065488815308,0.24228119850158691,0.20507870614528656,1],"metallicFactor":1,"roughnessFactor":0.19999998807907104},"alphaMode":"OPAQUE"}],"accessors":[{"bufferView":0,"byteOffset":0,"count":2806,"componentType":5126,"type":"VEC3","min":[-0.058047179132699966,0.02344299852848053,0.1349891722202301],"max":[0.058047179132699966,0.05910109356045723,0.4685390293598175]},{"bufferView":1,"byteOffset":0,"count":16824,"componentType":5125,"type":"SCALAR"},{"bufferView":2,"byteOffset":0,"count":15630,"componentType":5126,"type":"VEC3","min":[-0.021822495386004448,0.07473263889551163,0],"max":[0.057984381914138794,0.1061326339840889,0.05906909331679344]},{"bufferView":3,"byteOffset":0,"count":93768,"componentType":5125,"type":"SCALAR"},{"bufferView":4,"byteOffset":0,"count":24469,"componentType":5126,"type":"VEC3","min":[-0.05757225677371025,-0.09605423361063004,0.0004245758173055947],"max":[0.05772244185209274,-0.03355422616004944,0.46804079413414]},{"bufferView":5,"byteOffset":0,"count":147018,"componentType":5125,"type":"SCALAR"}],"bufferViews":[{"buffer":0,"byteOffset":0,"byteLength":33672,"byteStride":12,"target":34962},{"buffer":0,"byteOffset":33672,"byteLength":67296,"target":34963},{"buffer":0,"byteOffset":100968,"byteLength":187560,"byteStride":12,"target":34962},{"buffer":0,"byteOffset":288528,"byteLength":375072,"target":34963},{"buffer":0,"byteOffset":663600,"byteLength":293628,"byteStride":12,"target":34962},{"buffer":0,"byteOffset":957228,"byteLength":588072,"target":34963}],"buffers":[{"byteLength":1545300,"uri":"data:application/octet-stream;base64,"}]}